<svg width="74" height="26" viewBox="0 0 74 26" fill="none" xmlns="http://www.w3.org/2000/svg">
<path fill-rule="evenodd" clip-rule="evenodd" d="M30.8103 15.6507C31.1309 15.5889 31.4508 15.4654 31.7701 15.3419C33.494 14.786 35.5045 14.1682 36.9887 13.0564C38.935 11.574 39.6873 9.9065 39.6706 8.23883C39.6453 5.89173 37.914 3.48312 35.5415 2.00074C33.1907 0.518365 30.247 -0.0995324 27.8758 0.826952C26.2508 1.44461 24.8641 2.80345 24.1081 5.15055C23.236 7.80647 23.9494 10.3389 25.4867 12.5624C26.0636 13.4271 26.7579 14.1682 27.5225 14.9094C26.5163 15.0947 25.5003 15.2802 24.4701 15.4655C21.097 15.9597 17.5517 16.0833 14.1515 15.898C9.65372 15.7127 5.35111 14.7859 1.19428 13.0564C0.810104 12.9329 0.370338 13.1183 0.212212 13.4889C0.0547104 13.8595 0.237556 14.2916 0.621735 14.4769C4.94225 16.2681 9.41406 17.2568 14.0885 17.4421C17.5875 17.5657 21.2354 17.5034 24.7066 16.9475C26.1445 16.7005 27.5559 16.4535 28.9512 16.1447C30.7819 17.5653 32.8158 18.6772 34.5453 19.3566C46.1146 23.6802 61.6937 18.0598 72.1772 12.5009C72.5441 12.3156 72.6837 11.8829 72.4898 11.5123C72.2952 11.1417 71.84 11.0182 71.4731 11.2035C61.3262 16.5771 46.274 22.1362 35.0765 17.9362C33.7596 17.442 32.2482 16.639 30.8103 15.6507ZM29.3131 14.4769C29.974 14.3534 30.6306 14.1684 31.2853 13.9214C32.8652 13.3655 34.7219 12.8715 36.0814 11.8832C37.5508 10.7715 38.1789 9.53566 38.1666 8.30035C38.1462 6.32385 36.6577 4.47112 34.7386 3.29758C32.7985 2.06226 30.381 1.44449 28.4237 2.24744C27.1637 2.74157 26.1241 3.79182 25.538 5.58303C24.8197 7.80659 25.4571 9.90626 26.7239 11.6975C27.4286 12.7475 28.3267 13.674 29.3131 14.4769Z" fill="black"/>
<path fill-rule="evenodd" clip-rule="evenodd" d="M72.2918 11.7607C72.0738 12.0695 71.7476 12.3784 71.4209 12.6872C70.7927 13.3048 70.1269 13.8608 69.7761 14.355C67.6155 17.3197 65.0615 20.902 63.9287 24.4227C63.8009 24.7932 64.0177 25.2256 64.413 25.3491C64.8077 25.4727 65.232 25.2875 65.3598 24.8551C66.4469 21.5198 68.9206 18.1223 70.9941 15.2193C71.3734 14.7252 72.1763 14.0461 72.8199 13.4285C73.3659 12.8726 73.8014 12.3166 73.9595 11.7607C74.0707 11.4519 73.9471 10.896 73.2516 10.5254C72.2659 10.0313 69.5284 9.59854 69.2634 9.53677C66.5791 8.91911 64.2172 8.30158 62.5223 5.95448C62.2784 5.64565 61.8071 5.58401 61.4717 5.76931C61.1363 6.01637 61.0622 6.51062 61.3068 6.81944C63.2388 9.47537 65.8842 10.34 68.9441 11.0194C69.1393 11.0194 70.7755 11.2664 71.9126 11.637C72.0355 11.6988 72.1707 11.6989 72.2918 11.7607Z" fill="black"/>
</svg>
