<svg width="114" height="32" viewBox="0 0 114 32" fill="none" xmlns="http://www.w3.org/2000/svg">
<path d="M0 13.333H12V31.9997C5.37258 31.9997 0 26.6271 0 19.9997V13.333Z" fill="#121212"/>
<path d="M0 10.6667C0 4.77563 4.77562 0 10.6667 0H12V10.6667H0Z" fill="#121212"/>
<path d="M29.8726 23.3151C29.144 23.3151 28.4548 23.1969 27.7852 22.9803C27.1354 22.7637 26.5643 22.4289 26.0917 21.976C25.5994 21.5231 25.2252 20.9717 24.9495 20.3218C24.6542 19.6917 24.5163 18.9434 24.5163 18.0572V9.03816H27.2338V17.8603C27.2338 18.7858 27.4702 19.4751 27.9428 19.9477C28.4154 20.4203 29.0652 20.6566 29.8726 20.6566C30.6997 20.6566 31.3495 20.4203 31.8221 19.9477C32.2948 19.4751 32.5311 18.7858 32.5311 17.8603V9.03816H35.2486V18.0572C35.2486 18.904 35.1108 19.672 34.8351 20.3218C34.5397 20.9717 34.1458 21.5231 33.6929 21.976C33.2006 22.4289 32.6295 22.7637 31.9797 22.9803C31.3101 23.1969 30.6012 23.3151 29.8726 23.3151ZM38.1083 23V13.3114H40.6486V14.5126C40.944 14.0203 41.3575 13.6462 41.8892 13.4099C42.4012 13.1735 42.9132 13.0554 43.4449 13.0554C44.0357 13.0554 44.5674 13.1539 45.0203 13.3508C45.4338 13.5674 45.808 13.8431 46.1034 14.1779C46.3988 14.5126 46.6154 14.9065 46.7532 15.3988C46.8911 15.8517 46.9501 16.344 46.9501 16.8954V23H44.3311V17.3483C44.3311 16.8166 44.1932 16.344 43.9175 15.9699C43.6221 15.5957 43.1692 15.4185 42.5391 15.4185C41.968 15.4185 41.5151 15.6154 41.2 15.9895C40.8849 16.3834 40.7274 16.856 40.7274 17.4271V23H38.1083ZM49.5314 8.74278H52.1111V14.3748C52.3277 14.04 52.7018 13.7249 53.2138 13.4492C53.7061 13.1932 54.3166 13.0554 55.0452 13.0554C55.7738 13.0554 56.404 13.1735 56.9357 13.4295C57.4871 13.6855 57.9597 14.04 58.3535 14.4929C58.7277 14.9459 59.023 15.4972 59.22 16.1077C59.4169 16.7182 59.5154 17.3877 59.5154 18.1163C59.5154 18.8843 59.4169 19.5538 59.2003 20.1446C58.9837 20.7748 58.6883 21.3262 58.2747 21.7791C57.8612 22.232 57.3689 22.5865 56.8175 22.8425C56.2267 23.0985 55.5966 23.2363 54.9467 23.2363C54.2969 23.2363 53.7061 23.0985 53.2138 22.8425C52.7215 22.5865 52.3277 22.232 52.0717 21.8185V23H49.5314V8.74278ZM56.2071 16.088C55.7147 15.6351 55.1437 15.3988 54.4938 15.3988C54.1591 15.3988 53.8637 15.4579 53.5683 15.576C53.2729 15.6942 53.0169 15.8714 52.8003 16.088C52.5837 16.3243 52.4064 16.6197 52.2686 16.9545C52.1307 17.2695 52.0717 17.6634 52.0717 18.136C52.0717 18.5889 52.1307 18.9828 52.2686 19.2978C52.4064 19.6326 52.5837 19.928 52.8003 20.1643C53.0169 20.4006 53.2729 20.5778 53.5683 20.696C53.844 20.8338 54.1591 20.8929 54.4938 20.8929C55.1634 20.8929 55.7344 20.6566 56.2071 20.184C56.66 19.6917 56.8963 19.0222 56.8963 18.136C56.8963 17.2498 56.66 16.5803 56.2071 16.088ZM67.9684 23C67.9487 22.9015 67.929 22.7637 67.9094 22.5471C67.8897 22.4092 67.8897 22.2123 67.8897 21.9563C67.6337 22.4092 67.2398 22.744 66.7475 22.9409C66.2552 23.1575 65.7432 23.256 65.2115 23.256C64.601 23.256 64.089 23.1575 63.6558 22.9409C63.2029 22.744 62.809 22.4683 62.494 22.1335C62.1789 21.7988 61.9426 21.4049 61.785 20.9126C61.6078 20.4794 61.529 19.9871 61.529 19.4357V13.3114H64.1481V18.904C64.1481 19.4554 64.286 19.9083 64.5814 20.2825C64.857 20.6566 65.31 20.8535 65.9204 20.8535C66.5112 20.8535 66.9641 20.6763 67.2792 20.3218C67.5943 19.9674 67.7518 19.5145 67.7518 18.9434V13.3114H70.3709V21.2474C70.3709 21.5428 70.3906 21.8775 70.4103 22.2714C70.43 22.5668 70.4497 22.8228 70.4693 23H67.9684ZM74.8426 22.9015C74.941 23.4529 75.197 23.8862 75.5712 24.2209C75.9847 24.5557 76.4967 24.7329 77.1072 24.7329C77.9146 24.7329 78.5644 24.5163 79.0173 24.0831C79.4703 23.6695 79.6869 23 79.6869 22.0351V21.3262C79.49 21.6412 79.1749 21.9169 78.722 22.1729C78.269 22.4289 77.6783 22.5668 76.989 22.5668C76.3392 22.5668 75.7484 22.4486 75.197 22.2123C74.6653 21.976 74.1927 21.6412 73.7792 21.2277C73.3657 20.8142 73.0506 20.3218 72.834 19.7311C72.5977 19.16 72.4795 18.5298 72.4795 17.8603C72.4795 17.2302 72.5977 16.6197 72.8143 16.0289C73.0309 15.4775 73.3263 14.9852 73.7398 14.5323C74.114 14.1188 74.5866 13.7643 75.1577 13.5083C75.6893 13.2523 76.2998 13.1342 76.989 13.1342C77.757 13.1342 78.3675 13.272 78.8204 13.5477C79.2537 13.8037 79.5687 14.1188 79.746 14.4535V13.3114H82.2666V21.9563C82.2666 22.6062 82.1681 23.2363 81.9909 23.8665C81.7743 24.5163 81.4789 25.048 81.085 25.4812C80.6715 25.9735 80.1398 26.3477 79.5097 26.6037C78.8795 26.8991 78.1115 27.0369 77.186 27.0369C76.4967 27.0369 75.906 26.9385 75.3743 26.7415C74.8426 26.5643 74.3503 26.3083 73.9367 25.9735C73.5429 25.6782 73.2081 25.304 72.9521 24.8511C72.6961 24.4375 72.5386 24.0043 72.4795 23.5317L74.8426 22.9015ZM77.442 20.3218C78.1115 20.3218 78.6629 20.1052 79.0961 19.6523C79.5097 19.1994 79.7263 18.5889 79.7263 17.8603C79.7263 17.112 79.5097 16.5212 79.0567 16.0683C78.6038 15.6351 78.0524 15.4185 77.442 15.4185C77.1269 15.4185 76.8315 15.4775 76.5361 15.576C76.2407 15.6942 76.0044 15.8517 75.7878 16.0683C75.5909 16.2652 75.4333 16.5212 75.2955 16.856C75.1773 17.1514 75.1183 17.4862 75.1183 17.8603C75.1183 18.6283 75.3349 19.2191 75.7681 19.6523C76.2013 20.1052 76.7527 20.3218 77.442 20.3218ZM84.9943 12.9766C85.3881 12.0905 85.9198 11.3225 86.5696 10.6923C87.2195 10.0425 87.9875 9.56986 88.854 9.23509C89.7007 8.90032 90.6066 8.74278 91.5715 8.74278C92.5364 8.74278 93.4423 8.90032 94.3087 9.23509C95.1752 9.56986 95.9432 10.0425 96.593 10.6923C97.2429 11.3225 97.7746 12.0905 98.1684 12.9766C98.5623 13.8825 98.7592 14.9065 98.7592 16.0289C98.7592 16.9939 98.6016 17.88 98.3063 18.7071C98.0109 19.5145 97.5973 20.2234 97.0459 20.8535L98.7198 22.7046L96.9278 24.2406L95.2146 22.3502C94.6435 22.6652 94.0527 22.9015 93.4816 23.0394C92.8909 23.2166 92.2607 23.2954 91.5715 23.2954C90.6459 23.2954 89.7401 23.1182 88.854 22.7834C87.9678 22.4486 87.1998 21.9563 86.5696 21.3458C85.9198 20.7157 85.3881 19.9477 84.9943 19.0615C84.6004 18.1754 84.4035 17.1514 84.4035 16.0289C84.4035 14.9065 84.6004 13.8825 84.9943 12.9766ZM87.2195 16.0092C87.2195 16.8166 87.3376 17.5058 87.5936 18.0572C87.8496 18.6677 88.1844 19.1403 88.598 19.5145C89.0509 19.928 89.5038 20.2037 89.9961 20.3612C90.5081 20.5582 91.0398 20.6566 91.5715 20.6566C92.2213 20.6566 92.8121 20.5385 93.3635 20.3022L91.1776 17.8997L92.9893 16.344L95.1752 18.7858C95.4312 18.4117 95.6084 18.0178 95.7463 17.5649C95.8841 17.1317 95.9432 16.6197 95.9432 16.0092C95.9432 15.2019 95.825 14.5126 95.569 13.9415C95.2933 13.3311 94.9586 12.8388 94.5844 12.504C94.1709 12.1299 93.6983 11.8345 93.1666 11.6375C92.6152 11.4603 92.0835 11.3619 91.5715 11.3619C91.0398 11.3619 90.5278 11.4603 89.9961 11.6375C89.5038 11.8148 89.0312 12.1102 88.598 12.504C88.1844 12.8782 87.8496 13.3508 87.5936 13.9415C87.3376 14.5126 87.2195 15.2019 87.2195 16.0092ZM103.772 19.8098L102.61 23H99.7349L105.091 9.03816H108.242L113.559 23H110.605L109.443 19.8098H103.772ZM108.537 17.3286L106.607 12.0511L104.678 17.3286H108.537Z" fill="#121212"/>
</svg>
